<svg xmlns="http://www.w3.org/2000/svg" width="265.234" height="200" viewBox="0 0 1358 1024" fill="currentColor"><path d="M52.573 21.884c-22.628-14.53-40.99 5.8-41.58 30.88v726.781c.59 25.123 18.952 45.454 41.58 30.179h1056.055c118.68 15.231 214.883-91.39 214.84-222.915 0-63.115-22.651-123.647-62.918-168.291L949.484 73.838C911.121 31.163 858.971 7.222 804.61 21.884zm0 984.8h1229.905c22.628 0 40.99-20.353 40.99-45.433s-18.384-45.388-41.012-63.99H52.573c-22.628 18.58-40.99 38.91-40.99 63.99s18.362 45.432 40.99 45.432m1130.9-547.111H790.516c-22.628 2.013-40.99-18.317-45.957-43.397V234.47c4.968-25.08 23.329-45.432 45.957-43.419h147.02l245.959 268.522zm-556.959-3.983h-163.98c-22.628 5.996-40.99-14.334-40.749-39.414V234.47c-.24-25.08 18.12-45.432 40.75-43.419h163.98c22.65-2.013 40.989 18.34 37.334 43.419v181.706c3.655 25.08-14.684 45.41-37.335 39.392zm-327.96 0h-163.98c-22.65 5.996-40.99-14.334-35.562-39.414V234.47c-5.427-25.08 12.912-45.432 35.562-43.419h163.98c22.629-2.013 40.99 18.34 42.544 43.419v181.706c-1.532 25.08-19.915 45.41-42.544 39.392z"/></svg>
