<svg xmlns="http://www.w3.org/2000/svg" fill="#00bcff" viewBox="0 0 676 289"><path d="m127.4 138-.58 16.5-42.07.26c-23.14.14-42.38-.04-42.75-.42-.38-.37-.68-4.19-.68-8.48v-7.81l34.5-.55.28-10.25.29-10.25H48.58l-.62-3.75a61 61 0 0 1-.63-8l-.01-4.25h29V86H48.64l-.66-20.25c-.36-11.14-.66-29.36-.66-40.5V5h75.18l-.35 38.25c-.26 28.67-.66 38.81-1.62 40.5-1.22 2.15-1.85 2.25-14.25 2.25H93.32v15h28v16h-27.7l-.63 9.63c-.35 5.29-.4 10.01-.1 10.5.3.48 8.19.87 17.53.87zm542.88 15.07c-.98 1.84-2.4 1.93-32 1.93h-30.96V70h19V0h19v26h30v16h-30v27h11.42c6.28 0 12.13.27 13 .61 1.4.54 1.58 5.09 1.58 41.06 0 25.98-.37 41.15-1.04 42.4m-267.01-7.6c-.02.57-2.38 3.57-5.25 6.67l-5.2 5.64-6-4.42c-8.55-6.3-20.74-18.54-27.75-27.86-5.52-7.33-15.18-25.28-18.82-34.98l-1.5-3.97-3.21 8.98c-5.75 16.08-15.63 30.8-29.93 44.58-8.23 7.94-19.97 16.89-22.14 16.89-1.24 0-9.15-9.42-9.15-10.89 0-.61.42-1.11.93-1.11 1.53 0 17.42-15.48 23.36-22.76 7.16-8.76 14.72-21.02 18.64-30.24 3.53-8.29 9.07-28.04 9.07-32.34v-2.83l-23.75.29-23.75.28-.3-9.2-.28-9.2h48.85l.6-2.25c.33-1.24.6-10.01.62-19.5V0h19v39h52v18h-52.03l.65 2.75c6.88 28.95 24.39 57.43 48.14 78.32 3.99 3.5 7.23 6.83 7.2 7.4m-148.4-49.89c-2.82 2.07-55.74 2.1-57.46.03-.83-1-1.22-14.03-1.37-46L195.82 5h61.56l-.28 44.58c-.27 42.81-.36 44.64-2.22 46m218.87 60.46c-6.05 1.41-23 1.2-24.12-.29-.53-.69-1.9-3.72-3.03-6.75a536 536 0 0 0-2.77-7.22c-.63-1.56.44-1.74 11.66-2l12.34-.28.28-15.23.27-15.24-26.77-.26-26.78-.27-.3-8.23-.28-8.24 27.29-.26 27.29-.27.3-3.17c.25-2.47 1.47-4.07 5.5-7.19 2.86-2.21 6.98-5.85 9.15-8.08l3.96-4.06h-50.41V53h76v5.25c-.01 7.03-1.58 9.33-14.86 21.8-6.13 5.75-11.14 10.79-11.14 11.2s11.04.75 24.54.75h24.54l-.3 8.25-.28 8.25-24.25.27-24.25.27v16.77c0 15.42-.18 17.12-2.25 21.17-2.65 5.19-5.93 7.81-11.33 9.06M432.32 40v21h-17V24h10.5c6.45 0 10.5-.39 10.5-1.02 0-.56-2.03-5.35-4.5-10.64s-4.5-9.81-4.5-10.02c0-.22 4.15-.27 9.22-.11l9.22.29 8.2 21 6.33.3c3.47.17 6.88.09 7.57-.18.9-.34.19-3.42-2.63-11.3a524 524 0 0 1-3.9-11.07c0-.14 3.99-.25 8.88-.25h8.89l1.47 3.75c.8 2.06 2.29 6.9 3.29 10.75s2.3 7.33 2.9 7.73c.58.41 2.68.75 4.67.75 3.39.02 3.8-.34 6.6-5.73a147 147 0 0 0 5.26-11.5L505.55 1h18.85l-5.54 10.83c-3.05 5.96-5.54 11.14-5.54 11.5 0 .37 4.96.67 11.02.67h11.03l-.28 18.25-.27 18.25h-17l.42-20.5zM13.69 143.77c-5.43 1.79-10.4 3.24-11.06 3.24-1.2-.01-2.14-4.76-2.57-12.97-.2-3.77.07-4.53 1.76-4.87 1.1-.22 4.36-1.28 7.25-2.36l5.25-1.95V77.1l-5.25-.3-5.25-.3-.3-8.25L3.25 60h11.08V24.1l-6.25-.3-6.25-.3-.3-7.75L1.25 8H43.4l-.3 7.75-.28 7.75-11.5.6V60H41.4l-.3 8.25-.28 8.25-4.75.3-4.75.31v42.7l5-1.91c8.03-3.04 8.13-2.97 7.79 5.35l-.3 7.25-10.12 5.01a185 185 0 0 1-20 8.26M177.1 79.5l.3 18.5h-17.1l-.01-32.5-3.6 6.5c-3.48 6.27-11.82 17.01-13.21 16.99-.37 0-1.5-2.65-2.5-5.88l-1.83-5.88 3.59-5c4.66-6.48 11.04-20.36 13.57-29.49 1.1-3.96 2-7.58 2-8.04s-3.5-.69-7.75-.52l-7.75.32-.3-7.75-.28-7.75h18.35l-1-19h17.73v19h14v15h-14v3.93c0 3.5.9 4.95 8.05 13.06 6.4 7.27 7.92 9.58 7.43 11.32-1.3 4.57-4.74 12.69-5.4 12.69-.37 0-2.68-3.12-5.13-6.94s-4.68-6.97-4.95-7-.37 8.26-.21 18.44m417.2 61.85c-14.07 4.72-42.13 11.47-42.56 10.24-.22-.6-.77-4.4-1.24-8.44-.65-5.61-.56-7.46.4-7.83.7-.26 6.79-1.91 13.54-3.65l12.26-3.17 1.77-11c2.36-14.75 5.6-44.28 6.45-58.75L585.6 47h7.86c6.8 0 7.85.23 7.85 1.75-.03 10.04-6.2 60.33-8.55 69.65-.82 3.24-1.28 6.11-1.02 6.36.25.26 2.59-.26 5.19-1.15s5.12-1.61 5.6-1.61.73 3.71.57 8.25l-.3 8.25zm-360.44 13.57c-.45.72-7.47 1.03-21.36.94-40.2-.27-40.04-.15-40.24-32.36l-.12-20 9.09-.29 9.08-.29v16.92c0 14.58.23 17.1 1.67 18.29 1.33 1.09 6.12 1.31 23.5 1.06 20.52-.29 21.83-.2 21.79 1.5-.04 2.38-2.55 12.84-3.41 14.23m393.2-16.61c.96.25 7.26.51 14 .57l12.25.12V86h-28v25.93c0 23.85.14 25.96 1.75 26.38M605.4 24l-.58 15.5-26.07.27c-14.33.14-26.37-.04-26.75-.42s-.68-3.98-.68-8.02V24h19.28l-1.4-22h18.12v22zm-33.75 96.92c-2.1.59-5.26 1.07-7.01 1.07q-.48.01-.87.07c-.41.04-.76.08-1.05-.02-1.74-.57-1.96-5.74-4.93-40.83-1.41-16.66-2.82-30.95-3.12-31.75-.47-1.2.83-1.46 7.43-1.46h7.99l.6 4.25c.74 5.33 3.28 39.25 4.15 55.43l.65 12.18zm-307.71 29.33c.46 1.57-.34 1.75-7.6 1.75h-8.12l-1.38-3.29c-1.78-4.28-11.86-42.7-11.34-43.23.22-.22 4.07-.7 8.54-1.08l8.14-.68 1.55 5.39c.86 2.97 3.39 13.04 5.63 22.39s4.3 17.79 4.58 18.75M157.2 146.5l-2.38 6-7.55.29c-4.15.16-7.8.03-8.1-.27-.31-.31.5-3.79 1.79-7.74 2.88-8.79 7.35-28.42 8.09-35.53l.55-5.25h15.98l-.68 6.89c-1.03 10.42-5.01 28.87-7.7 35.61m68.12-14.54c0 1.7-14.52 1.32-15.96-.41-.66-.8-3.14-7.55-5.51-15l-4.3-13.55h17.47l4.15 13.96c2.28 7.68 4.15 14.43 4.15 15m-12-61.96v12h27V70zm0-48.7v11.97l4.64-.63c2.55-.35 8.36-.64 12.9-.64h8.27l.4-5.75c.2-3.16.36-5.83.32-5.94-.04-.1-6.02.08-13.3.4zm0 24.7v11.06l13.25-.28 13.24-.28.67-10.5zM92.99 70.33c.36.37 3.29.67 6.5.67h5.83V52h-13v8.83c0 4.86.3 9.14.67 9.5M92.32 20v18h13V20zm-28 0v18l6.25-.01 6.25-.01.3-8.99.3-8.99zm0 33v18h12V53z"/><path d="M20.4 288c-1.05 0-2.54.24-3.3.53q-2.78 1.06-2.78-3.2c0-2.2-.36-2.33-6.4-2.33-6.32 0-6.38-.02-6.81-3.01-.25-1.65-.22-3.22.05-3.5S4.5 276 7.99 276h6.33l.07-6.25c.05-3.44.26-7.24.49-8.45.39-2.08 0-2.23-6.32-2.5l-6.74-.3-.31-3.25-.32-3.25h7.07c6.86 0 7.06-.07 7.06-2.5 0-2.19.43-2.5 3.5-2.5 3.08 0 3.5.3 3.5 2.53v2.54l10.75-.29c9.99-.26 10.75-.42 10.75-2.28 0-1.59.77-2.06 3.75-2.31 3.44-.28 3.75-.1 3.75 2.25V252h21v-2.5c0-2.25.4-2.5 4-2.5s4 .25 4 2.5v2.5h593.13l-.32 3.25c-.2 2.03-.88 3.29-1.81 3.35-.83.05-3.64.16-6.25.25l-4.75.15v17h13v7h-6.5c-6.27 0-6.5.09-6.5 2.5 0 2.25-.4 2.5-4 2.5s-4-.25-4-2.5V283h-21v2.56c0 2.35-.31 2.53-3.75 2.25-3.01-.25-3.81-.75-4.07-2.56-.31-2.17-.7-2.25-10.75-2.25h-10.43v3c0 2.51-.4 3-2.42 3-3.93 0-5.58-1.06-5.58-3.61 0-2.37-.1-2.39-10.5-2.39h-10.5v2.5c0 2.25-.4 2.5-4 2.5s-4-.25-4-2.5V283h-21v3.06c0 2.93-.17 3.05-3.75 2.75-3.26-.27-3.8-.67-4.07-3.06l-.31-2.75h-10.37c-10.34 0-10.37.01-10.68 2.53-.18 1.39-.66 2.52-1.07 2.5s-2.1-.03-3.75-.03c-2.53 0-3-.39-3-2.5V283h-21v2.5c0 2.25-.4 2.5-4 2.5s-4-.25-4-2.5V283h-20.87l-.31 2.64c-.26 2.18-.91 2.71-3.66 3-2.93.32-3.47 0-4.47-2.64l-1.13-3h-19.43l-.31 2.7c-.28 2.36-.77 2.71-3.82 2.75-3.1.04-3.54-.27-3.82-2.7l-.31-2.75h-20.87v2.5c0 2.3-.37 2.5-4.5 2.5s-4.5-.2-4.5-2.5V283h-21v2.48c0 1.83-.67 2.65-2.57 3.13-2.85.71-4.06-.1-4.6-3.11-.32-1.83-1.26-2.02-11.1-2.28l-10.73-.29v2.47c0 1.59-.71 2.69-2 3.1-3.27 1.04-6-.36-6-3.07 0-2.41-.07-2.43-10-2.43h-10v2.5c0 2.24-.4 2.5-3.93 2.5-3.32 0-3.98-.35-4.25-2.25-.31-2.15-.78-2.26-11.07-2.53l-10.75-.29v2.54c0 2.23-.42 2.53-3.5 2.53-3.07 0-3.5-.31-3.5-2.5V283h-21v2.5c0 2.25-.4 2.5-4 2.5s-4-.25-4-2.5V283h-20.87l-.31 2.75c-.28 2.42-.75 2.75-3.82 2.75s-3.54-.33-3.82-2.75l-.31-2.75h-20.87v2.5c0 2.25-.4 2.5-4 2.5s-4-.25-4-2.5V283h-10.5c-10.4 0-10.5.03-10.5 2.38 0 1.85-.68 2.51-3.1 2.99-3.88.78-4.9.16-4.9-2.93 0-2.43-.04-2.44-10.43-2.44h-10.44l-.31 2.75c-.28 2.42-.75 2.75-3.82 2.75s-3.54-.33-3.82-2.75l-.31-2.75h-20.74l-.31 2.75c-.28 2.42-.75 2.75-3.82 2.75s-3.54-.33-3.82-2.75l-.31-2.75H80.32v3.06c0 2.93-.17 3.05-3.75 2.75-3.26-.27-3.8-.67-4.07-3.06l-.31-2.75H51.32v2.5c0 2.25-.4 2.5-4 2.5s-4-.25-4-2.5V283h-21v2.5c0 1.8-.54 2.5-1.92 2.5m441.69-68.75.26 26.75h-175.3l-41.83.01c-122.55.03-137.11.04-138.16-3.74-.15-.51-.04-1.09.07-1.75.09-.5.19-1.05.19-1.66 0-3.56.65-4.67 5.75-9.75 3.16-3.16 11.37-9.46 18.25-14.01 20.78-13.75 36.37-20.33 52.48-22.16 5.85-.66 56.25-.92 143.52-.73l134.5.29zm211 1.47-.27 24.78-101.1.25-101.1.26-.62-10.97c-.35-6.03-.35-18.19 0-27.01l.63-16.03h100.3c98.74 0 100.34.03 101.37 1.97.68 1.26.96 10.8.79 26.75m-124.1 2.63c.39.38 10.85.57 23.26.42l22.57-.27v-15.75l-19-.33c-10.45-.19-20.91-.08-23.25.23l-4.25.58v7.22c0 3.97.3 7.52.68 7.9m-59.6-.76c1.58 1.89 43.85 2.09 45.73.21 1.3-1.3 1.64-12.62.43-14.35-.5-.71-8.2-.87-23.73-.5l-23 .55-.3 6.34c-.18 3.81.17 6.9.87 7.75m118.35.06c.4 1.08 5.06 1.35 23.03 1.35h22.5l.65-2.55c.65-2.57.08-12.1-.77-12.95-.25-.25-10.55-.58-22.9-.73l-22.43-.27-.3 6.9c-.16 3.8-.07 7.51.22 8.25m-384.35-.06c.95 1.14 5.42 1.41 23.02 1.41h2.57c13.99.01 19.05.01 20.6-2.33.9-1.32.66-3.4.28-6.65l-.12-1.06-.68-6-23.12.27-23.12.27-.3 6.34c-.18 3.81.17 6.9.87 7.75m175.36.08c.42 1.11 4.69 1.32 22.8 1.1l22.27-.27v-15.92l-45 .06-.3 6.83c-.16 3.76-.06 7.45.23 8.2m-116.36-.08c.95 1.13 5.35 1.41 22.52 1.41 20.07 0 21.4-.11 22.37-1.93 1.15-2.14 1.35-8.3.4-11.84l-.6-2.27-22.63.27-22.63.27-.3 6.34c-.18 3.81.17 6.9.87 7.75m58.02.02c.98 1.17 5.09 1.38 23.3 1.16l22.1-.27.3-7.77.29-7.77-23.3.27-23.28.27-.3 6.34c-.18 3.85.17 6.9.89 7.77M139.3 224c11.08.74 25.13-.07 28.19-1.62 1.48-.75 5.64-3.87 9.25-6.93 7.16-6.07 8.3-8.98 3.95-10.07-3.86-.97-17.21.29-22.35 2.11-4.5 1.59-16.54 8.6-23.03 13.41l-3.5 2.6zm-59 34v18h21v-18zm289 0v18h21v-18zm146 0v18h21v-18zm29 0v18h21v-18zm-145.63 14.25-.62 3.75h22.29l-.53-17.5-20.5-.57-.01 5.29a70 70 0 0 1-.63 9.03m87.65-13.75-.01 17.5h21v-17.9zm-377.01.5v17h21v-18.28l-6.15.64c-3.38.35-8.1.64-10.5.64zm29 0v17h21v-18.28l-5.25.63c-2.9.35-7.61.64-10.5.64zm87-1.27V276h21v-17h-5.86c-3.22 0-7.95-.29-10.5-.64zm115.67 17.6c.36.37 5.3.67 11 .67l2.52.01c4.18.03 6.28.05 7.2-.99.95-1.04.7-3.13.24-7.34l-.27-2.53-.64-6.15h-20.72v7.83c0 4.31.3 8.14.67 8.5m-86.67-16.04V276h21v-8.44c0-4.64-.36-8.66-.8-8.93-.43-.27-5.16-.23-10.5.08zm58-1.29v18h20v-18zm-145 8.88V276h21v-17l-8.25-.01c-4.54-.01-9.26-.29-10.5-.62-2.21-.59-2.25-.45-2.25 8.51m464 .68V276h21v-16.73l-9.75-.52c-5.36-.29-10.1-.32-10.5-.08-.41.25-.75 4.25-.75 8.89m-580-8.42V276h21v-8.44c0-4.64-.34-8.59-.75-8.76-.41-.18-5.14-.18-10.5.01zm522 8.42V276h21v-16.86l-9.75-.33c-5.36-.19-10.1-.19-10.5-.01s-.75 4.12-.75 8.76m-551-8.56v17h21v-17zm174 0v17h21v-17zm261 0v17h21v-17zm145 0v17h21v-17zm-175 13.14V276h20.88l.63-4.25c.35-2.34.49-6.05.32-8.25l-.33-4-10.11-.28-10.11-.29-.64 4.68a77 77 0 0 0-.64 8.53m-144-13.14v17.07l20.5-.57.58-16.5z"/></svg>
