<svg xmlns="http://www.w3.org/2000/svg" width="1em" height="1em" fill="currentColor" viewBox="0 0 200 200"><g clip-path="url(#a)"><path d="M65.688 6.298c27.772-10.536 60.176-7.716 85.706 7.433 23.57 14.088 42.247 39.394 46.395 62.627-10.39.048-12.864.364-23.238.415-6.641-21.575-31.02-45.685-50.906-50.613-26.009-5.53-47.034-1.66-65.018 11.062C45.265 46.3 32.976 62.296 28.195 77.878c-6.823 20.027-1.384 48.502 10.236 66.093 9.065 13.19 25.024 25.551 40.393 30.432 15.023 4.714 39.312.277 54.153-4.984 20.749-7.552 36.023-26.573 42.711-47.534l-28.947.312c-1.382 9.667-2.831 12.965-8.714 23.992l-79.264-.136V53.541h78.988c9.407 11.891 10.95 30.711 11.067 46.458 0 0 31.679.132 51.182 0-.263 30.116-12.935 59.728-36.824 78.296-17.363 13.756-39.359 21.689-61.552 21.689-31.042.581-61.967-14.471-80.595-39.295C9.046 145.505 2.805 126.687.247 107.703c-.672-11.587.227-17.477.345-18.168 2.258-13.26 5.774-26.449 12.556-38.168 11.406-20.66 30.41-36.89 52.54-45.07M80.76 74.558l.05 51.993 38.337.208c8.645-10.028 8.232-16.387-.345-25.582 8.714-9.057 9.13-18.739.207-26.484z"/></g><defs><clipPath id="a"><path d="M0 0h200v200H0z"/></clipPath></defs></svg>
