<svg xmlns="http://www.w3.org/2000/svg" width="1em" height="1em" fill="currentColor" viewBox="0 0 200 200"><g clip-path="url(#a)"><path d="M91.99 199.78c-17.375-1.548-33.258-7.07-47.35-16.462-14.035-9.358-25.99-22.75-33.561-37.604l-2.71-5.314h34.9l3.01 3.66c7.803 9.49 19.693 17.54 31.68 21.454 8.135 2.654 11.759 3.18 21.886 3.17 10.528-.01 13.676-.466 21.929-3.172a70.78 70.78 0 0 0 36.501-27.52c1.727-2.54 6.429-11.386 6.429-12.09 0-.192-5.134-.352-11.41-.352h-11.409l-8.029-8.89c-4.415-4.888-8.583-9.524-9.261-10.3l-1.237-1.412-11.431 10.1c-6.288 5.556-11.538 10.1-11.665 10.1-.13 0-5.89-4.53-12.8-10.07l-12.568-10.07-.918 1.022c-.506.564-4.702 5.066-9.326 10.008l-8.404 8.982-15.968.266c-8.782.144-20.711.264-26.51.264H3.225l-.614-2.71c-1.219-5.334-1.9-10.03-2.359-16.254-1.299-17.614 2.47-36.04 10.649-52.055 4.985-9.76 10.825-17.736 18.832-25.72 6.771-6.748 13.07-11.484 21.618-16.252C65.415 4.715 80.12.623 96.22.067c17.861-.614 34.239 3.004 49.505 10.936 26.62 13.832 45.594 38.547 51.97 67.697l.771 3.516-15.487-.103-15.484-.106-1.406-4.18c-7.898-23.447-28.878-41.36-53.725-45.864-6.36-1.154-17.278-1.238-23.598-.18-19.422 3.246-36.902 14.582-47.435 30.76-5.549 8.524-8.882 17.332-10.397 27.49-1.185 7.925-1.98 7.023 6.2 7.023h6.982l14.086-18.16c7.75-9.987 14.26-18.16 14.47-18.16.212 0 6.417 6.32 13.794 14.047 7.373 7.725 13.571 14.045 13.77 14.045s5.093-6.284 10.879-13.963L121.631 60.9l15.997 18.267 15.997 18.27 23.036.01c22.032.008 23.048.04 23.273.75.281.886-.388 11.916-.972 16.014-2.12 14.83-8.046 30.046-16.455 42.238-4.196 6.086-6.719 9.084-12.335 14.664-15.589 15.486-35.408 25.218-57.133 28.054-5.999.784-15.895 1.072-21.05.612z"/></g><defs><clipPath id="a"><path d="M0 0h200v200H0z"/></clipPath></defs></svg>
