<svg xmlns="http://www.w3.org/2000/svg" width="1em" height="1em" fill="currentColor" viewBox="0 0 200 200"><path fill-rule="evenodd" d="M138.419 41.51c-.841-.703-1.029-1.28-.69-1.75.69-.955 2.102.526 3.131-.698l9.91-11.868c1.042-1.242-.652-2.322.17-3.25.383-.434.954-.396 1.795.307l10.399 8.686c1.337 1.117 1.35 2.134-.332 4.224-.408.502-.967.878-1.35.49-.383-.39-.201-1.03-.401-2.122-.157-.822-.371-1.437-1.306-2.216l-3.251-2.717a1.967 1.967 0 0 0-2.761.257l-3.54 4.236 4.519 3.773c1.035.866 2.272-.302 2.906.225.508.427-.352 1.682-1.174 2.668-1.098 1.318-2.159 2.416-2.667 1.964-.647-.57.445-1.889-.772-2.906l-4.469-3.734-3.54 4.236a1.96 1.96 0 0 0 .239 2.762l3.671 3.069c.954.797 1.82.828 2.624.728 1.01-.113 1.619-.364 2.083-.126.628.333.402.942.044 1.318-1.864 1.977-2.987 2.686-4.217 1.651z" clip-rule="evenodd"/><path fill-rule="evenodd" d="M100.003 5.059c-52.355 0-94.944 42.595-94.944 94.944s42.59 94.938 94.944 94.938c52.349 0 94.938-42.589 94.938-94.938S152.352 5.059 100.003 5.059m0 194.941C44.862 200 0 155.145 0 100.003S44.862 0 100.003 0C155.139 0 200 44.861 200 100.003S155.139 200 100.003 200" clip-rule="evenodd"/><path fill-rule="evenodd" d="M100.003 38.272c-34.041 0-61.731 27.69-61.731 61.731 0 34.035 27.69 61.725 61.731 61.725 34.035 0 61.725-27.69 61.725-61.725 0-34.041-27.69-61.731-61.725-61.731m0 128.521c-36.828 0-66.79-29.962-66.79-66.79s29.962-66.79 66.79-66.79c36.822 0 66.79 29.962 66.79 66.79s-29.968 66.79-66.79 66.79M172.963 99.94c-1.62.069-1.218 1.758-2.191 1.896-.577.081-.935-.371-.985-1.463l-.226-5.46c-.044-1.048.213-1.487.797-1.45.942.07.791 1.802 2.41 1.733l15.778-.66c1.619-.062 1.306-1.844 2.448-1.989.59-.075.935.42.979 1.519l.226 5.448c.044 1.092-.301 1.487-.86 1.468-1.149-.05-.973-1.763-2.598-1.7z" clip-rule="evenodd"/><path fill-rule="evenodd" d="M188.942 74.849c.59 2.171.433 3.652.351 4.757-.056.734-.282 1.55.471 2.002 1.079.665.571 1.544-.333 2.046a25.6 25.6 0 0 1-4.217 1.776c-.559.17-1.168.201-1.369-.402-.339-.991 1.067-1.556 2.197-3.79.822-1.626 1.086-3.458.445-5.53-.709-2.322-2.19-3.326-3.872-2.497-3.822 1.883 1.94 12.979-6.307 15.433-4.375 1.305-8.103-.816-9.609-6.377-.502-1.852-.427-3.841-.169-5.416.157-.96-1.023-.954-1.193-1.757-.138-.64.553-1.268 1.306-1.833 1.299-.992 3.257-2.034 4.387-2.467 1.211-.464 1.851-.225 2.052.502.414 1.5-4.619 4.387-3.596 9.76.59 3.125 2.222 4.324 4.311 3.76 4.751-1.281-1.632-12.81 6.226-15.779 3.703-1.393 7.557.766 8.919 5.812M187.887 123.902c.728-.05 1.174-.451 1.312-1.154l2.856-15.195c.137-.709-.139-1.242-.798-1.556-.659-.308-2.636-.879-3.295-1.004-.514-.095-1.01-.007-1.186.577-.389 1.255 2.58 2.987 2.253 4.757l-.169.898a1.23 1.23 0 0 1-1.425.972l-15.288-2.88c-1.594-.301-1.017-1.99-1.883-2.272-.552-.182-.954.1-1.136 1.086l-1.08 5.736c-.175.935.082 1.4.666 1.425.866.037.985-1.733 2.579-1.431l15.282 2.88c.666.126 1.099.76.973 1.425l-.163.891c-.339 1.77-3.734 2.304-3.835 3.615-.044.609.39.873.904.967.659.125 2.705.307 3.433.263M164.804 125.139c.439-.998.872-1.143 1.406-.91 1.205.527-.207 1.77 1.28 2.416l5.404 2.366 11.541-1.644s.935-.188 1.4-.433c1.01-.521 1.525-1.042 2.09-.892.558.151.634.754.433 1.199l-2.799 6.414c-.264.615-.791.816-1.256.515s-.332-1.13-.847-1.726c-.376-.433-1.054-.295-1.054-.295l-7.946 1.13 4.839 6.659s.408.583.866.508c.628-.094 1.312-1.337 2.04-1.242.433.056.709.514.395 1.236l-2.196 5.021c-.232.533-.703.872-1.149.47-.471-.407-.32-1.349-.759-2.51-.314-.81-.603-1.161-.603-1.161l-6.841-9.019-5.41-2.36c-1.487-.652-1.437 1.23-2.648.703-.534-.232-.715-.646-.282-1.65zM26.021 93.834a1.83 1.83 0 0 0 2.046-1.576s.069-.527.213-1.663c.345-2.673-1.619-5.893-7.588-6.659-5.63-.715-8.78 1.186-9.175 4.306-.145 1.136-.245 1.87-.245 1.87a1.827 1.827 0 0 0 1.594 2.033zm-14.354 2.755c-1.707-.22-1.964 1.594-3.138 1.418-.496-.081-.872-.552-.734-1.606l1.004-7.877c.992-7.694 6.057-10.249 12.251-9.458 6.703.86 10.883 5.379 10.03 12.057l-1.036 8.127c-.145 1.086-.596 1.387-1.073 1.368-1.18-.056-.823-1.914-2.43-2.121zM9.86 118.574c-.126-.747.182-1.28.71-1.318 1.104-.094 1.399 1.513 2.704 1.293.98-.169 7.054-1.205 10.946-1.87 2.962-.502 5.303-1.946 4.619-5.925-.565-3.301-3.446-4.412-6.396-3.91-2.234.383-10.53 1.801-10.694 1.826-.314.057-.866.207-1.123.659-.383.678-.528 1.532-1.118 1.726-.546.176-.96-.175-1.042-.659l-.822-4.801c-.131-.778.195-1.073.678-1.13.584-.062.904.691 1.707 1.168.34.213.904.081 1.255.019.515-.088 6.923-1.18 10.437-1.783 4.174-.709 8.919.239 10.086 7.061 1.099 6.439-2.422 9.872-7.085 10.669-3.954.678-9.684 1.657-10.62 1.814-1.418.245-1.06 2.04-2.096 2.247-.552.113-.985-.289-1.117-1.067zM43.268 59.692c-.804.91-1.319.916-1.658.483-.54-.69 1.03-2.253-.188-3.32L29.466 46.361c-1.217-1.073-2.284.986-3.326.233-.446-.32-.408-.93-.006-1.381l2.498-2.85c1.292-1.468 2.158-1.606 4.041-1.355 2.693.358 14.034 1.7 14.034 1.7l-7.82-6.872c-1.218-1.066-2.504.729-3.402.113-.433-.288-.49-.834.239-1.657l3.006-3.432c.533-.603 1.08-.64 1.425-.164.57.779-.76 2.096.464 3.17l13.054 11.46c.985.866.992 1.782.37 2.548-.345.433-.966.722-1.908.615l-19.223-2.604 10.255 9.006c1.218 1.067 2.36-.603 3.163-.057.427.295.44.866-.25 1.65zM116.114 28.851c-.27 1.6 1.45 1.802 1.399 2.667-.031.584-.489.854-1.569.672l-5.447-.929c-1.055-.176-1.406-.577-1.268-1.142.226-.923 1.933-.458 2.203-2.059l2.63-15.527c.269-1.6-1.457-1.738-1.387-2.742.037-.534.533-.816 1.575-.64l5.441.922c1.055.182 1.425.577 1.268 1.149-.301 1.035-1.946.508-2.215 2.102zM165.871 51.922l1.569 2.435c1.506 2.335 3.772 3.584 6.445 1.864 1.852-1.192 2.467-3.175.408-6.364-1.136-1.763-2.09-2.008-3.175-1.311zm-12.659 2.304c-.597-.923-.502-1.413.012-1.676.728-.37 1.525 1.042 2.831.2l13.136-8.46c1.362-.878.276-2.315 1.311-2.943.503-.301 1.061-.044 1.651.872l5.435 8.442c2.341 3.62 2.329 7.857-1.312 9.991-2.742 1.607-5.573.552-7.562-.885 0 0-3.132 5.668-3.697 6.734-.753 1.419.207 2.787-.665 3.465-.364.282-.872.2-1.193-.295l-3.847-5.975c-.232-.358-.263-.985.245-1.199.665-.27 1.167.622 1.845.534.527-.07.797-.546.979-.873.188-.357 3.214-5.886 3.214-5.886l-1.896-2.944-5.14 3.308c-1.368.878-.295 2.077-.985 2.66-.421.346-.942.24-1.532-.677zM64.813 15.006c.716-.257 1.293-.056 1.425.458.282 1.074-1.243 1.651-.79 2.894.338.935 2.44 6.727 3.784 10.437 1.016 2.824 2.811 4.757 6.608 3.376 3.15-1.142 3.772-4.054 2.75-6.872-.773-2.127-3.64-10.042-3.698-10.199-.106-.3-.35-.816-.847-.991-.734-.258-1.594-.251-1.889-.785-.276-.508 0-.979.452-1.148l4.582-1.657c.746-.27 1.098-.007 1.236.464.17.559-.521 1.017-.853 1.89-.139.37.087.903.207 1.236.175.49 2.39 6.596 3.608 9.954 1.444 3.979 1.35 8.824-5.152 11.177-6.145 2.228-10.149-.627-11.762-5.077a6830 6830 0 0 1-3.665-10.13c-.496-1.349-2.197-.678-2.592-1.663-.207-.52.12-1.017.86-1.286zM87.225 31.073c-1.211.044-1.57-.326-1.487-.866.125-.866 2.34-.804 2.278-2.423l-.596-15.89c-.063-1.62-2.291-.98-2.454-2.254-.076-.552.389-.935.991-.96l3.791-.145c1.952-.069 2.649.465 3.76 2.002 1.594 2.203 8.416 11.36 8.416 11.36l-.389-10.4c-.063-1.625-2.247-1.317-2.423-2.39-.088-.521.276-.93 1.368-.973l4.563-.17c.803-.031 1.205.345 1.098.917-.176.954-2.04.897-1.983 2.516l.653 17.36c.05 1.305-.609 1.945-1.601 2.027-.546.044-1.186-.213-1.751-.966L90.131 14.07l.508 13.632c.063 1.619 2.065 1.305 2.222 2.265.081.509-.333.904-1.374.948zM72.119 106.003c-1.174.885-2.674 1.174-4.118 1.224-3.458.445-6.665.257-9.91-1.111-2.598-1.739-3.112-4.092-3.495-7.036 7.073-.941 13.537-2.485 20.623-.903.088 2.981-.477 5.855-3.1 7.826M57.012 82.33c2.379-1.883 5.096-2.26 8.027-2.354 1.952.189 3.929.207 5.862.54 1.726.238 3.075 1.406 3.684 2.975.841 2.127.828 3.596.628 5.843-7.255.307-14.071.96-21.327.834.02-3.175.584-5.648 3.126-7.838m79.807-23.987c-3.107-.252-7.858-.471-10.965-.195-10.173.326-14.704 2.052-24.853 2.711-1.506-.013-2.21-1.939-1.839-3.458.96-3.32 2.429-4.695 2.856-8.165.351-1.958-.609-3.954-2.071-5.216-2.887-1.8-7.45-.069-8.078 3.383-.797 3.22-1.362 4.764-3.119 7.632-2.542 4.004-6.056 7.243-9.031 10.908-.646.86-1.488 1.682-1.55 2.824.2 2.033 2.246 3.722 4.293 3.345 3.514-.47 6.52-2.58 9.069-4.92.501.351 1.154.577 1.518 1.092-2.699 3.903-6.445 7.048-8.862 11.184-.577 1.029-.941 2.209-1.839 3.025-.445-3.213-.828-6.766-3.947-8.567-5.699-3.314-16.4-3.866-23.742-.904-1.6.647-2.693 1.262-4.105 2.322-1.845 1.387-2.686 3.546-3.301 5.392-2.009 7.135-2.686 14.265-1.65 21.589.759 5.787 5.026 10.896 10.512 12.829 3.326 1.179 6.928.696 10.38.621 4.94-.163 9.816-1.205 13.437-4.826 2.981-3.277 3.402-7.89 3.848-12.088.194-3.37 2.905-6.05 4.123-9.075 1.092-2.58 2.391-5.668 3.514-6.597 1.124-.928 1.852.49 1.431 1.005-4.82 10.022-6.006 23.83-6.069 34.8-5.874-.364-11.692-.094-17.554.239-3.037.169-7.882.282-13.437 1.337-1.092.207-4.519 1.286-5.56 1.795-2.868 1.638-1.563 5.755.678 7.719 1.349 1.174 6.991.057 8.026-.125 11.41-2.442 17.26-2.479 27.502-2.228.17 5.542.239 11.56 1.469 18.564.533 3.333.646 6.766 2.987 9.44 1.155 1.449 3.239 1.456 4.883 1.029 1.84-.634 2.184-2.893 2.253-4.588-.194-3.05-.847-5.579-1.042-8.629-.426-4.57-.677-9.163-.746-13.758-.12-7.161-.772-14.353.006-21.502.056-1.675.358-3.326.514-4.995.509-3.295.773-6.66 1.695-9.879.967-3.514 2.517-6.866 3.188-10.468.22-3.163-2.159-5.724-2.504-8.787-.226-1.412.785-2.63 1.889-3.358 1.789-1.167 3.917-1.587 5.912-2.278 2.881-.979 5.931-.922 8.931-1.198 5.504-.195 8.441-.998 13.939-.521 3.364.081 6.471.577 9.847.546 1.802.062 3.32-.885 3.49-2.542.226-2.912-2.592-6.15-6.326-6.465" clip-rule="evenodd"/><path fill-rule="evenodd" d="M134.126 79.876c-7.895.238-14.322.69-22.217.508-.565 0-1.124-.245-1.406-.71-.282-.47-.559-1.273.295-1.857 1.28-.872 3.144-.652 4.625-.734 6.936-.314 12.327-.458 19.268-.345.684.012 1.45 0 2.203.113 1.123.163 1.701 1.224 1.243 2.127-.452.904-2.611.797-4.011.898m9.163-7.074c-3.847-2.554-8.698-2.843-13.173-2.51-3.64.088-7.281-.075-10.921.107-4.18.671-7.293-.163-11.259 1.613-1.946.991-3.885 2.604-4.286 4.858-.088 1.813-.019 3.684.59 5.41.527 1.606 1.87 3.03 3.583 3.294 8.435.986 15.596.082 24.056.415 4.117-.013 8.655-.239 11.994-2.95 1.111-.753 1.393-2.153 1.663-3.383.464-2.441-.1-5.347-2.247-6.854M136.047 97.813c-.559.062-1.613.138-2.109.17-6.069.35-8.51.733-17.209.69-2.31-.02-4.782.056-6.546-.189-.772-.106-1.45-.364-1.456-.878-.006-.515.339-1.004.828-1.199.967-.383 2.969-.565 5.278-.609 4.651.006 9.289-.339 13.933-.414 2.592-.15 5.021-.377 7.607-.032 1.67.226 1.739 1.344 1.462 1.689-.238.295-1.067.69-1.788.772m10.192-4.676c-.615-1.877-1.782-3.351-4.13-3.966-3.401-.885-8.202-1.017-13.82-.892-4.537.1-10.01.283-12.677.484-2.661.194-4.318.276-6.32.583-2.46.377-4.029 1.387-5.234 2.636a8.4 8.4 0 0 0-1.877 3.082c-.904 3.376-.157 6.583 2.611 8.598 1.525 1.111 3.709 1.356 5.648 1.324 9.973-.571 20.002.094 29.943-1.01 2.379-.257 4.475-1.827 5.636-3.885 1.168-2.128.948-4.713.22-6.954M134.848 124.48c-2.335.276-6.232.759-8.906 1.029-.088-1.751-.063-2.849-.019-4.594 2.944-.207 6.979-1.136 9.942-.785-.095 1.689-.013 2.894-1.017 4.35m9.276-16.011c-1.418-.489-2.73.478-3.828 1.243-1.526 1.356-2.712 3.979-4.488 4.155-2.623.264-6.696.822-9.59 1.061a29 29 0 0 1 2.348-3.302c1.537-1.594 2.014-2.855 1.336-3.929-.464-.74-1.299-.978-2.416-.897-6.445.458-13.757.508-20.491 1.136-2.165.201-1.758 4.13.263 5.002 2.442 1.061 6.885-.044 9.32-.012-.113 1.136-.27 2.234-.27 2.956-3.138.621-4.393.659-7.757 1.236-3.791.684-6.879.941-8.391 2.354-1.261 1.173-1.695 2.799-1.142 4.387.301.884 2.265 2.912 5.228 2.146 2.184-.571 4.23-1.626 5.654-2.172 2.229-.847 4.337-1.38 6.32-1.544.233 1.783.277 2.128.27 3.91-3.288.534-5.554 1.23-8.435 2.072-1.839.615-4.594 1.681-5.805 2.604-1.142.872-2.68 1.939-2.837 3.27-.64 2.812 1.839 5.573 3.314 5.379 2.121-.289 4.814-1.99 6.571-3.007 2.899-1.669 5.366-2.987 8.598-3.225.49 1.123.923 3.96 1.5 5.485 1.08 2.887 2.655 5.673 4.789 8.579 1.387 1.902 4.004 3.05 5.805 2.027 1.845-1.054 1.362-4.374.91-6.044-1.293-4.198-2.341-4.267-3.395-8.529-.082-.458-.785-2.372-.766-2.837 1.293-.445 4.607-1.023 6.496-.903 3.464.213 4.613.929 6.747.251 1.293-.414 1.688-1.306 1.845-1.745a215 215 0 0 0 4.839-15.621c.627-2.071-.446-4.72-2.542-5.486M28.343 66.043l-7.902-.496 5.662 5.523zm-.465 6.772s2.561 2.492 3.277 3.213c1.136 1.13 1.838-.89 2.799-.596.57.182.621.716.376 1.268l-1.864 4.18c-.226.496-.608.797-1.067.609-.853-.346-.244-1.82-1.324-2.913-.998-1.01-13.437-13.518-13.964-14.052-.59-.602-.803-1.462-.377-2.403.484-1.055 1.513-1.275 2.266-1.25 1.889.063 18.878 1.005 19.832 1.036.967.032 1.638-1.067 2.435-.772.559.207.603.892.352 1.45l-2.573 5.78c-.264.597-1.243.678-1.4-.376-.126-.866-.351-1.425-1.45-1.5-.615-.044-4.374-.283-4.374-.283zM146.032 20.052c.916.408 1.224.885.992 1.38-.358.748-1.375.333-2.53.886-.621.288-1.387 1.217-1.387 1.217s-11.272 11.598-12.138 12.496c-.878.91-1.857 1.594-3.615.816-1.669-.74-1.782-2.228-1.738-3.282.05-1.061.979-16.33.979-16.33s.1-1.256.025-2.003c-.144-1.487-1.462-2.397-1.017-3.282.251-.502.791-.59 1.569-.245l5.969 2.648c.835.364 1.035.785.822 1.3-.282.677-1.475.608-2.033 1.029-.515.389-.703 1.713-.703 1.713l-.86 13.902 9.922-10.262s.697-.76.697-1.355c0-.998-1.356-1.6-.91-2.423.226-.402.728-.515 1.368-.232zM40.098 135.846c.452.998.314 1.556-.232 1.751-.898.326-1.469-1.4-2.95-.735l-14.153 6.352c-1.48.665-.564 2.297-1.638 2.787-.49.219-1.016.069-1.468-.929l-5.598-12.465c-.848-1.895 1.029-2.899 2.133-3.426.797-.377 1.488-.44 1.745.219.138.352-.063.841-.483 1.808-.458 1.073-.653 1.494-.113 2.692l1.776 3.948a1.65 1.65 0 0 0 2.184.822l5.178-2.328-2.109-4.701c-.64-1.425-2.51-.314-2.818-1.569-.163-.672 1.136-1.437 2.115-1.883 1.757-.791 3.295-1.381 3.672-.703.514.929-1.3 1.538-.603 3.094l2.109 4.701 6.2-2.78c1.382-.622.365-2.354 1.331-2.787.515-.232 1.017.101 1.463 1.092zM56.491 175.849c-.772 1.256-.696 2.197.301 3.239.93.973 1.256 1.657.892 2.209-.44.659-1.193.345-1.739.007l-8.925-5.498c-1.016-.628-1.148-1.193-.797-1.695.42-.609 1.57-.326 2.561-.088 1.99.49 2.467-.15 3.006-1.035l6.02-9.76c1.047-1.701.282-2.328-.365-2.868-.452-.376-.816-.653-1.274-1.01-.464-.371-.803-.986-.276-1.544.552-.578 1.908.031 3.602.452 2.78.69 3.81.282 4.984.947 1.13.634 1.242 1.676.727 2.504zM86.51 175.504c.49-2.347.332-5.322-2.586-5.931-2.78-.583-4.243 1.607-4.757 4.394-.383 2.108.019 5.065 2.698 5.661 2.73.609 4.036-1.224 4.645-4.124m-6.81 6.54c-4.676-1.01-7.16-4.155-6.188-8.799 1.18-5.63 6.301-7.004 10.75-6.069 5.806 1.218 8.737 5.981 7.557 11.63-1.67 7.964-9.427 12.181-17.046 10.995-.803-.125-1.908-.464-1.845-1.117.082-.822 1.82-.878 3.502-1.349 4.89-1.381 6.804-3.32 7.72-5.429-1.3.534-3.057.446-4.45.138M137.289 169.611c1.074-1.77 2.197-2.862 3.559-3.866 3.684-2.73 8.316-3.288 11.096.515 3.753 5.127.979 10.475-4.462 13.644-3.358 1.952-6.891 1.651-8.429.126-.973-.967-.659-2.549.571-3.252 1.054-.608 2.109-.232 3.107.484 1.644 1.18 2.843.96 3.929.345 2.278-1.299 2.818-3.929.558-7.117-1.675-2.36-3.948-2.749-6.188-1.023-1.858 1.431-2.605 3.766-3.634 4.418-.747.477-1.299-.094-1.663-.703l-5.04-9.1a1 1 0 0 1 .314-1.331l11.51-7.694a.84.84 0 0 1 1.262.427l1.023 2.749a1.174 1.174 0 0 1-.458 1.349l-9.182 6.132zM116.421 188.803c2.592-.521 3.32-4.016 2.078-10.211-1.243-6.182-3.283-9.207-5.881-8.68-2.592.521-3.433 4.117-2.19 10.3 1.192 5.943 3.558 9.087 5.993 8.591m-4.336-21.206c6.244-1.262 11.045 2.403 12.502 9.64 1.33 6.627-.848 12.47-7.588 13.945-5.837 1.274-11.291-2.215-12.722-9.935-1.462-7.839 2.41-12.571 7.808-13.65" clip-rule="evenodd"/></svg>
